<svg width="25" height="24" viewBox="0 0 25 24" fill="none" xmlns="http://www.w3.org/2000/svg">
<path d="M21.5 22.75H3.5C3.09 22.75 2.75 22.41 2.75 22C2.75 21.59 3.09 21.25 3.5 21.25H21.5C21.91 21.25 22.25 21.59 22.25 22C22.25 22.41 21.91 22.75 21.5 22.75Z" fill="#111111"/>
<path d="M6.09998 19.7509H4.5C3.54 19.7509 2.75 18.9609 2.75 18.0009V9.38086C2.75 8.42086 3.54 7.63086 4.5 7.63086H6.09998C7.05998 7.63086 7.84998 8.42086 7.84998 9.38086V18.0009C7.84998 18.9609 7.05998 19.7509 6.09998 19.7509ZM4.5 9.12085C4.36 9.12085 4.25 9.23085 4.25 9.37085V18.0009C4.25 18.1409 4.36 18.2509 4.5 18.2509H6.09998C6.23998 18.2509 6.34998 18.1409 6.34998 18.0009V9.38086C6.34998 9.24086 6.23998 9.13086 6.09998 9.13086H4.5V9.12085Z" fill="#111111"/>
<path d="M13.3002 19.7495H11.7002C10.7402 19.7495 9.9502 18.9595 9.9502 17.9995V6.18945C9.9502 5.22945 10.7402 4.43945 11.7002 4.43945H13.3002C14.2602 4.43945 15.0502 5.22945 15.0502 6.18945V17.9995C15.0502 18.9595 14.2602 19.7495 13.3002 19.7495ZM11.7002 5.93945C11.5602 5.93945 11.4502 6.04945 11.4502 6.18945V17.9995C11.4502 18.1395 11.5602 18.2495 11.7002 18.2495H13.3002C13.4402 18.2495 13.5502 18.1395 13.5502 17.9995V6.18945C13.5502 6.04945 13.4402 5.93945 13.3002 5.93945H11.7002Z" fill="#0C0507"/>
<path d="M20.4999 19.75H18.8999C17.9399 19.75 17.1499 18.96 17.1499 18V3C17.1499 2.04 17.9399 1.25 18.8999 1.25H20.4999C21.4599 1.25 22.2499 2.04 22.2499 3V18C22.2499 18.96 21.4599 19.75 20.4999 19.75ZM18.8999 2.75C18.7599 2.75 18.6499 2.86 18.6499 3V18C18.6499 18.14 18.7599 18.25 18.8999 18.25H20.4999C20.6399 18.25 20.7499 18.14 20.7499 18V3C20.7499 2.86 20.6399 2.75 20.4999 2.75H18.8999Z" fill="#0C0507"/>
</svg>
