<svg width="25" height="24" viewBox="0 0 25 24" fill="none" xmlns="http://www.w3.org/2000/svg">
<path d="M15.47 22.75H9.46997C4.03997 22.75 1.71997 20.43 1.71997 15V9C1.71997 3.57 4.03997 1.25 9.46997 1.25H15.47C20.9 1.25 23.22 3.57 23.22 9V15C23.22 20.43 20.91 22.75 15.47 22.75ZM9.46997 2.75C4.85997 2.75 3.21997 4.39 3.21997 9V15C3.21997 19.61 4.85997 21.25 9.46997 21.25H15.47C20.08 21.25 21.72 19.61 21.72 15V9C21.72 4.39 20.08 2.75 15.47 2.75H9.46997Z" fill="#111111"/>
<path d="M11.95 18.0599C11.71 18.0599 11.13 17.9699 10.79 17.0999L9.64999 14.2199C9.48999 13.8099 8.91999 13.4299 8.48999 13.4299L2.48999 13.4499C2.07999 13.4499 1.73999 13.1199 1.73999 12.6999C1.73999 12.2899 2.06999 11.9499 2.48999 11.9499L8.48999 11.9299H8.49999C9.54999 11.9299 10.67 12.6899 11.06 13.6699L11.97 15.9699L14.03 10.7499C14.34 9.96989 14.89 9.85989 15.12 9.83989C15.35 9.82989 15.91 9.87989 16.3 10.6199L17.34 12.5899C17.52 12.9299 18.06 13.2599 18.45 13.2599H22.51C22.92 13.2599 23.26 13.5999 23.26 14.0099C23.26 14.4199 22.92 14.7599 22.51 14.7599H18.45C17.5 14.7599 16.46 14.1299 16.02 13.2899L15.24 11.8099L13.14 17.0999C12.77 17.9599 12.18 18.0599 11.95 18.0599Z" fill="#111111"/>
</svg>
