<svg width="29" height="28" viewBox="0 0 29 28" fill="none" xmlns="http://www.w3.org/2000/svg">
<path d="M14.5 24.5C20.299 24.5 25 19.799 25 14C25 8.20101 20.299 3.5 14.5 3.5C8.70101 3.5 4 8.20101 4 14C4 19.799 8.70101 24.5 14.5 24.5Z" fill="#3D5DD3" stroke="#3D5DD3" stroke-width="2" stroke-linejoin="round"/>
<path d="M13.3557 16.3808C13.3324 15.8091 13.4257 15.2491 13.6241 14.7124C13.8807 14.1874 14.2424 13.7325 14.6857 13.3475C15.0474 13.0325 15.3857 12.6824 15.6891 12.2974C15.8991 11.9941 16.0157 11.6325 16.0157 11.2591C16.0391 10.8508 15.9107 10.4425 15.6424 10.1391C15.3391 9.85912 14.9424 9.7191 14.5341 9.7541C14.1257 9.73076 13.7174 9.87078 13.4024 10.1391C13.1107 10.4075 12.9591 10.7808 12.9707 11.1658H10.9874C10.9641 10.3141 11.3257 9.50911 11.9674 8.96077C12.6907 8.40077 13.6007 8.1091 14.5224 8.15577C15.4441 8.09744 16.3541 8.38911 17.0774 8.96077C17.7074 9.53244 18.0341 10.3491 17.9874 11.1891C17.9291 12.1575 17.4857 13.0674 16.7507 13.7091L15.7474 14.6541C15.3624 15.1441 15.1641 15.7508 15.1991 16.3691H13.3441L13.3557 16.3808ZM13.2157 18.8191C13.2157 18.5391 13.3091 18.2591 13.5191 18.0724C13.7407 17.8741 14.0324 17.7691 14.3357 17.7808C14.6391 17.7691 14.9307 17.8741 15.1524 18.0724C15.3507 18.2708 15.4557 18.5391 15.4557 18.8074C15.4557 19.0758 15.3507 19.3441 15.1641 19.5308C14.9424 19.7408 14.6391 19.8458 14.3357 19.8224C14.0324 19.8458 13.7291 19.7408 13.5074 19.5308C13.3207 19.3441 13.2157 19.0758 13.2157 18.8074V18.8191Z" fill="white"/>
</svg>
